<svg width="121" height="30" viewBox="0 0 121 30" fill="none" xmlns="http://www.w3.org/2000/svg">
<path d="M12.553 6.54157C12.553 6.92768 12.553 7.12143 12.553 7.50754C12.654 9.80172 11.7433 12.0425 9.8333 13.1391C12.139 13.7611 12.9908 16.4161 12.9487 18.7271V20.9272C13.0568 25.1393 10.1926 27.6665 6.57892 28.2366C4.38221 28.567 2.18923 28.918 0 29.2896V0.33437L6.34035 0.323138C9.95118 0.32033 12.7074 2.36178 12.553 6.54157ZM4.19182 11.8404L5.83094 11.7351C7.49251 11.6424 8.39065 10.4293 8.35697 8.65603C8.35697 8.03967 8.35697 7.73218 8.35697 7.1116C8.35697 5.13614 7.71283 4.27968 6.22388 4.31478L4.20024 4.36252C4.1965 6.85607 4.19369 9.34869 4.19182 11.8404ZM4.182 24.5721C5.14049 24.4415 5.61903 24.3783 6.57892 24.2548C8.07069 24.1579 8.85095 22.7918 8.75272 21.2586C8.75272 20.2968 8.75272 19.8166 8.75272 18.8549C8.94779 16.8499 7.90509 15.5147 6.05547 15.7267L4.18901 15.8868C4.18621 18.7753 4.18387 21.6704 4.182 24.5721Z" fill="#E50914"/>
<path d="M23.2227 0.00161588C26.6637 0.0760293 29.7357 2.2621 29.5841 6.34641C29.5719 10.7204 29.5598 15.0935 29.5476 19.4656C29.6683 23.5724 26.6006 25.9803 23.1511 26.4212C19.4842 26.8901 16.7981 24.53 16.7953 20.4765C16.8066 15.8751 16.8173 11.275 16.8276 6.67636C16.8557 2.62153 19.4968 -0.0756056 23.2227 0.00161588ZM23.1553 22.7314C24.4913 22.6106 25.3333 21.8455 25.339 20.016L25.3768 6.18635C25.3768 4.36112 24.5433 3.67314 23.2073 3.6928C21.8713 3.71246 21.0278 4.43272 21.0236 6.29446L20.9914 20.36C20.9872 22.2273 21.825 22.8521 23.1553 22.7314Z" fill="#E50914"/>
<path d="M40.0279 0.001618C43.3594 0.0676072 46.5465 2.04588 46.3963 6.08386L46.3752 18.6611C46.5072 22.7117 43.3103 24.7925 39.9717 25.0537C36.4634 25.326 33.6047 23.2158 33.5991 19.2157L33.6328 6.26357C33.6637 2.27754 36.4872 -0.0671793 40.0279 0.001618ZM39.9802 21.5548C41.319 21.4874 42.1624 20.7896 42.1666 19.0486C42.175 14.6615 42.1839 10.2744 42.1933 5.8873C42.1933 4.1463 41.3512 3.48922 40.0209 3.50045C38.6905 3.51168 37.8415 4.18702 37.8372 5.94626C37.826 10.3774 37.8153 14.8089 37.805 19.241C37.8008 21.0016 38.6414 21.6236 39.9802 21.5562V21.5548Z" fill="#E50914"/>
<path d="M54.989 16.8752C54.989 19.3276 54.989 21.7799 54.989 24.2323C53.5857 24.2529 52.1823 24.2828 50.779 24.3222C50.7837 16.307 50.7911 8.29379 50.8014 0.282417H55.0031L54.9961 10.7199C56.8288 7.23515 58.664 3.75598 60.5014 0.282417H64.7031C62.7561 3.83928 60.8073 7.39287 58.8567 10.9432C60.8102 15.3687 62.7632 19.7946 64.7157 24.2211C63.2721 24.2033 61.829 24.1949 60.3863 24.1958C59.0204 21.0236 57.6554 17.8515 56.2914 14.6793C55.7707 15.5526 55.5097 15.9935 54.989 16.8752Z" fill="#E50914"/>
<path d="M77.9395 11.0934V14.5684C76.1292 14.5178 74.3184 14.4743 72.5071 14.4378L72.5226 24.3924C71.1192 24.3446 69.7158 24.3062 68.3125 24.2772C68.3078 16.2761 68.3013 8.27788 68.2928 0.282417C71.9977 0.282417 75.7026 0.282417 79.4074 0.282417V3.76861C77.1031 3.74989 74.7979 3.73492 72.4917 3.72369C72.4917 6.14516 72.4954 8.56758 72.5029 10.9909C74.3142 11.019 76.1264 11.0532 77.9395 11.0934Z" fill="#E50914"/>
<path d="M87.3139 0.282417C87.3326 7.39615 87.3513 14.5099 87.37 21.6236C89.6771 21.7724 91.9829 21.9391 94.2872 22.1234C94.2872 23.5794 94.2872 24.3081 94.2984 25.7641C90.5917 25.4243 86.8826 25.1337 83.1712 24.8922L83.1123 0.282417H87.3139Z" fill="#E50914"/>
<path d="M101.942 0.303476C101.965 9.06366 101.987 17.8234 102.008 26.5826C100.611 26.4198 99.2125 26.2644 97.8138 26.1165C97.7895 17.5051 97.7661 8.89705 97.7436 0.292244L101.942 0.303476Z" fill="#E50914"/>
<path d="M116.316 14.0236C117.914 19.0996 119.475 24.1883 121 29.2896C119.533 29.0397 118.065 28.8001 116.595 28.5707C115.467 24.7331 114.321 20.9015 113.157 17.076C112.02 20.5757 110.87 24.0694 109.707 27.557C108.397 27.3754 107.088 27.2028 105.778 27.0389C107.361 22.5685 108.916 18.0883 110.444 13.5982C108.999 9.15867 107.527 4.72897 106.029 0.309097L110.379 0.316117C111.456 3.72696 112.518 7.14343 113.564 10.5655C114.654 7.1584 115.729 3.74569 116.791 0.32735L120.687 0.335774C119.258 4.90635 117.8 9.46896 116.316 14.0236Z" fill="#E50914"/>
</svg>
